<svg width="139" height="32" viewBox="0 0 139 32" fill="none" xmlns="http://www.w3.org/2000/svg">
<g clip-path="url(#clip0_1854_1772)">
<path d="M38.7684 23.3151V24.9484H47.1313V23.3151H46.9351C45.5959 23.3151 45.2693 22.8251 45.2693 21.3878V13.123C45.8898 12.437 46.968 12.0123 47.9805 12.0123C49.4832 12.0123 50.4959 12.7636 50.4959 14.789V21.3878C50.4959 22.7599 50.2673 23.3151 48.8627 23.3151H48.6993V24.9484H56.8334V23.3151H56.67C55.102 23.3151 54.7427 22.727 54.7427 21.159V13.613C54.7427 10.6403 53.1419 8.84358 50.2347 8.84358C48.0133 8.84358 46.282 9.95427 45.4326 11.555H45.2693V4.62951C45.2693 3.38816 45.2693 2.11414 45.3019 1.03613H43.9299C42.4926 1.46081 39.6178 2.24482 38.0498 2.50615V3.97617H39.0625C40.3364 3.97617 41.0225 4.43352 41.0225 5.96887V21.3878C41.0225 22.6618 40.565 23.2825 38.9318 23.3151H38.7684Z" fill="#FFFDFC"/>
<path d="M72.7965 20.6692L71.9797 20.3752C71.9797 22.3351 71.0109 22.4985 70.3576 22.4985C69.6715 22.4985 69.1052 22.172 69.1052 21.1919L69.203 14.0377V13.907C69.203 10.2483 66.655 8.74561 63.127 8.74561C59.1088 8.74561 56.7896 10.967 56.7896 13.3517C56.7896 14.7237 57.7042 15.6057 58.8802 15.6057C59.9256 15.6057 60.7423 14.8544 60.7423 13.907C60.7423 13.221 60.5137 12.8944 60.5137 12.339C60.5137 11.359 61.2649 10.575 62.7351 10.575C64.205 10.575 65.087 11.6203 65.087 13.2863V15.8997L62.3429 16.6184C59.2395 17.4351 56.9529 18.5784 56.9529 21.3879C56.9529 23.6093 58.8802 25.3078 61.2323 25.3078C63.2577 25.3078 64.6624 24.0665 65.2829 22.3677H65.4463V22.4332C65.5117 24.4258 66.8838 25.4059 68.3863 25.4059C70.9998 25.4059 72.6984 21.9432 72.7965 20.6692ZM65.087 17.5004V20.7998C64.6624 21.4857 63.9109 22.1065 62.8656 22.1065C61.755 22.1065 60.9056 21.3552 60.9056 20.2771C60.9056 18.9704 61.951 18.3824 63.6823 17.8924L65.087 17.5004Z" fill="#FFFDFC"/>
<path d="M69.693 23.3151V24.9484H78.5131V23.3151H78.3497C76.7164 23.3151 76.2264 22.6944 76.2264 21.3878V4.62951C76.2264 3.38816 76.2264 2.11414 76.259 1.03613H74.887C73.4497 1.46081 70.575 2.24482 69.007 2.50615V3.97617H70.0197C71.2936 3.97617 71.9796 4.43352 71.9796 5.96887V21.3878C71.9796 22.6944 71.4896 23.3151 69.7911 23.3151H69.693Z" fill="#FFFDFC"/>
<path d="M84.6337 25.4385C88.423 25.4385 90.6444 22.3351 90.9383 18.7418H89.5663C89.2069 20.1138 87.8677 21.355 85.9076 21.355C83.033 21.355 81.1383 18.9378 81.1383 15.6384C81.1383 12.7637 82.739 10.9996 84.797 10.9996C85.875 10.9996 86.3976 11.555 86.6262 12.1757C86.7896 12.6003 86.7896 13.0577 86.855 13.4497C87.0184 14.3644 87.7044 15.083 88.7171 15.083C90.0891 15.083 90.873 14.1357 90.873 12.8944C90.873 10.6076 88.6516 8.74561 85.3849 8.74561C81.1055 8.74561 77.5121 12.0777 77.5121 17.4024C77.5121 21.7472 80.3542 25.4385 84.6337 25.4385Z" fill="#FFFDFC"/>
<path d="M93.0179 31.8411C95.9906 31.8411 97.6893 30.1752 99.094 26.6144L104.386 13.1882C104.941 11.7509 105.464 10.9015 106.836 10.8689V9.17017H100.727V10.8689H101.152C102.034 10.8689 102.459 11.1955 102.459 11.8489C102.459 12.1756 102.361 12.6002 102.165 13.0902L99.5514 20.081L96.8073 13.2536C96.6114 12.7962 96.5133 12.3715 96.5133 12.0449C96.5133 11.2935 96.9707 10.8689 97.9179 10.8689H98.3101V9.17017H89.7512V10.8689C91.254 10.8689 91.7112 11.8162 92.2993 13.1556L97.4281 24.6871L97.1014 25.5038C96.4806 27.0718 95.5332 27.8231 94.1614 27.8231C93.4754 27.8231 92.9527 27.6271 92.1686 27.6271C90.8292 27.6271 89.8491 28.3131 89.8491 29.5544C89.8491 30.8938 90.9599 31.8411 93.0179 31.8411Z" fill="#FFFDFC"/>
<path d="M113.017 25.4384C117.329 25.4384 121.183 22.041 121.183 17.0757C121.183 12.1103 117.329 8.71289 113.017 8.71289C108.639 8.71289 104.817 12.1103 104.817 17.0757C104.817 22.041 108.639 25.4384 113.017 25.4384ZM113.017 23.1518C110.73 23.1518 109.587 20.7997 109.587 17.0757C109.587 13.4496 110.665 11.0322 113.017 11.0322C115.271 11.0322 116.447 13.3516 116.447 17.0757C116.447 20.7017 115.336 23.1518 113.017 23.1518Z" fill="#FFFDFC"/>
<path d="M120.151 23.3151V24.9483H128.514V23.3151H128.317C126.978 23.3151 126.652 22.825 126.652 21.3878V13.1229C127.272 12.4696 128.35 12.0122 129.363 12.0122C130.833 12.0122 131.878 12.7309 131.878 14.8216V21.3878C131.878 22.7598 131.65 23.3151 130.278 23.3151H130.114V24.9483H138.248V23.3151H138.085C136.517 23.3151 136.125 22.7269 136.125 21.1589V13.6129C136.125 10.6402 134.524 8.84351 131.584 8.84351C129.396 8.84351 127.664 9.9542 126.815 11.5549H126.652V8.90884H125.377C123.973 9.26819 121.294 9.98687 119.857 10.2809V11.7182H120.445C121.751 11.7182 122.405 12.1756 122.405 13.5802V21.3878C122.405 22.7269 121.915 23.3151 120.216 23.3151H120.151Z" fill="#FFFDFC"/>
<path d="M28.3232 15.5395C28.2016 15.5904 28.0799 15.6463 27.9578 15.7073C25.8962 16.7358 23.7831 16.7358 21.7217 15.7073C20.2406 14.9683 18.811 14.9683 17.33 15.7073C15.2684 16.7358 13.1555 16.7358 11.0939 15.7073C9.6129 14.9683 8.18327 14.9683 6.70226 15.7073C4.6407 16.7358 2.52776 16.7358 0.466202 15.7073C0.356227 15.6524 0.246536 15.6016 0.137085 15.5549C0.221061 16.5005 0.398467 17.4193 0.660032 18.3021C0.903416 18.3945 1.14626 18.5011 1.38839 18.6219C2.86941 19.3608 4.29904 19.3608 5.78005 18.6219C7.8416 17.5933 9.95457 17.5933 12.0161 18.6219C13.4971 19.3608 14.9268 19.3608 16.4078 18.6219C18.4693 17.5933 20.5823 17.5933 22.6439 18.6219C24.1249 19.3608 25.5544 19.3608 27.0354 18.6219C27.2908 18.4946 27.5466 18.383 27.8032 18.2872C28.0638 17.4042 28.2401 16.4852 28.3232 15.5395Z" fill="url(#paint0_linear_1854_1772)"/>
<path d="M3.88219 23.9206C3.05523 23.0361 2.34081 22.0456 1.76172 20.9714C3.40679 21.4459 5.07064 21.2761 6.70229 20.4621C8.1833 19.7232 9.61293 19.7232 11.0939 20.4621C13.1555 21.4907 15.2684 21.4907 17.33 20.4621C18.811 19.7232 20.2407 19.7232 21.7218 20.4621C23.3669 21.283 25.0452 21.4489 26.7037 20.9592C26.1231 22.0389 25.4057 23.0344 24.5748 23.9227C23.9352 23.8834 23.2946 23.7014 22.6439 23.3768C20.5823 22.3482 18.4694 22.3482 16.4078 23.3768C14.9268 24.1157 13.4972 24.1157 12.0161 23.3768C9.9546 22.3482 7.84163 22.3482 5.78008 23.3768C5.14062 23.6958 4.51075 23.8771 3.88219 23.9206Z" fill="url(#paint1_linear_1854_1772)"/>
<path d="M5.77136 25.6107C8.13066 27.369 11.0582 28.4102 14.2294 28.4102C17.3956 28.4102 20.3189 27.3724 22.6762 25.6191C22.357 25.5095 22.0387 25.3756 21.7216 25.2173C20.2405 24.4784 18.8109 24.4784 17.3299 25.2173C15.2683 26.2459 13.1554 26.2459 11.0938 25.2173C9.61281 24.4784 8.18318 24.4784 6.70217 25.2173C6.39294 25.3716 6.08256 25.5028 5.77136 25.6107Z" fill="url(#paint2_linear_1854_1772)"/>
<path d="M28.3466 13.353C27.9078 13.4785 27.4705 13.6497 27.0353 13.8668C25.5543 14.6057 24.1247 14.6057 22.6437 13.8668C20.5821 12.8383 18.4692 12.8383 16.4076 13.8668C14.9266 14.6057 13.497 14.6057 12.016 13.8668C9.95442 12.8383 7.84146 12.8383 5.77991 13.8668C4.29889 14.6057 2.86927 14.6057 1.38825 13.8668C0.964482 13.6554 0.538545 13.4874 0.111328 13.3629C0.590983 5.99926 6.72849 0.174805 14.2293 0.174805C21.7268 0.174805 27.862 5.99403 28.3466 13.353Z" fill="url(#paint3_linear_1854_1772)"/>
</g>
<defs>
<linearGradient id="paint0_linear_1854_1772" x1="0.11147" y1="14.2925" x2="28.3468" y2="14.2925" gradientUnits="userSpaceOnUse">
<stop stop-color="#FFAC2F"/>
<stop offset="1" stop-color="#F44545"/>
</linearGradient>
<linearGradient id="paint1_linear_1854_1772" x1="0.111499" y1="14.2923" x2="28.3468" y2="14.2923" gradientUnits="userSpaceOnUse">
<stop stop-color="#FFAC2F"/>
<stop offset="1" stop-color="#F44545"/>
</linearGradient>
<linearGradient id="paint2_linear_1854_1772" x1="0.111378" y1="14.2925" x2="28.3467" y2="14.2925" gradientUnits="userSpaceOnUse">
<stop stop-color="#FFAC2F"/>
<stop offset="1" stop-color="#F44545"/>
</linearGradient>
<linearGradient id="paint3_linear_1854_1772" x1="0.111328" y1="14.2924" x2="28.3466" y2="14.2924" gradientUnits="userSpaceOnUse">
<stop stop-color="#FFAC2F"/>
<stop offset="1" stop-color="#F44545"/>
</linearGradient>
<clipPath id="clip0_1854_1772">
<rect width="138.248" height="32" fill="white"/>
</clipPath>
</defs>
</svg>
